<svg width="100%" height="100%" viewBox="0 0 24 24" xmlns="http://www.w3.org/2000/svg" style="background:#020a0d;"><defs><style>.r-line { stroke: rgba(255, 255, 255, 0.2); stroke-width: 0.05; fill: none; }</style></defs><circle cx="12" cy="12" r="2" class="r-line" /><circle cx="12" cy="12" r="4" class="r-line" /><circle cx="12" cy="12" r="6" class="r-line" /><circle cx="12" cy="12" r="8" class="r-line" /><circle cx="12" cy="12" r="10" class="r-line" /><circle cx="12" cy="12" r="12" class="r-line" /><line x1="27.0" y1="12.0" x2="-3.0" y2="12.0" class="r-line" /><line x1="26.488887394336025" y1="15.882285676537812" x2="-2.4888873943360252" y2="8.117714323462188" class="r-line" /><line x1="24.99038105676658" y1="19.5" x2="-0.9903810567665801" y2="4.500000000000001" class="r-line" /><line x1="22.606601717798213" y1="22.606601717798213" x2="1.3933982822017867" y2="1.3933982822017885" class="r-line" /><line x1="19.5" y1="24.99038105676658" x2="4.499999999999998" y2="-0.9903810567665783" class="r-line" /><line x1="15.882285676537812" y1="26.488887394336025" x2="8.117714323462188" y2="-2.4888873943360252" class="r-line" /><line x1="12.000000000000002" y1="27.0" x2="11.999999999999998" y2="-3.0" class="r-line" /><line x1="8.117714323462188" y1="26.488887394336025" x2="15.882285676537812" y2="-2.4888873943360252" class="r-line" /><line x1="4.5000000000000036" y1="24.99038105676658" x2="19.499999999999996" y2="-0.9903810567665801" class="r-line" /><line x1="1.3933982822017885" y1="22.606601717798213" x2="22.606601717798213" y2="1.3933982822017867" class="r-line" /><line x1="-0.9903810567665801" y1="19.5" x2="24.99038105676658" y2="4.500000000000001" class="r-line" /><line x1="-2.4888873943360235" y1="15.882285676537816" x2="26.488887394336025" y2="8.117714323462184" class="r-line" /></svg>