<svg width="100%" height="100%" viewBox="0 0 24 24" xmlns="http://www.w3.org/2000/svg" style="background:#020a0d;"><defs><style>.i-line { stroke: rgba(0, 200, 255, 0.3); stroke-width: 0.05; fill: none; }</style></defs><line x1="0" y1="0" x2="0" y2="24" class="i-line" /><line x1="2" y1="0" x2="2" y2="24" class="i-line" /><line x1="4" y1="0" x2="4" y2="24" class="i-line" /><line x1="6" y1="0" x2="6" y2="24" class="i-line" /><line x1="8" y1="0" x2="8" y2="24" class="i-line" /><line x1="10" y1="0" x2="10" y2="24" class="i-line" /><line x1="12" y1="0" x2="12" y2="24" class="i-line" /><line x1="14" y1="0" x2="14" y2="24" class="i-line" /><line x1="16" y1="0" x2="16" y2="24" class="i-line" /><line x1="18" y1="0" x2="18" y2="24" class="i-line" /><line x1="20" y1="0" x2="20" y2="24" class="i-line" /><line x1="22" y1="0" x2="22" y2="24" class="i-line" /><line x1="24" y1="0" x2="24" y2="24" class="i-line" /><line x1="-10" y1="-24" x2="34" y2="1.4034000000000013" class="i-line" /><line x1="-10" y1="-24" x2="34" y2="-49.403400000000005" class="i-line" /><line x1="-10" y1="-22" x2="34" y2="3.4034000000000013" class="i-line" /><line x1="-10" y1="-22" x2="34" y2="-47.403400000000005" class="i-line" /><line x1="-10" y1="-20" x2="34" y2="5.403400000000001" class="i-line" /><line x1="-10" y1="-20" x2="34" y2="-45.403400000000005" class="i-line" /><line x1="-10" y1="-18" x2="34" y2="7.403400000000001" class="i-line" /><line x1="-10" y1="-18" x2="34" y2="-43.403400000000005" class="i-line" /><line x1="-10" y1="-16" x2="34" y2="9.403400000000001" class="i-line" /><line x1="-10" y1="-16" x2="34" y2="-41.403400000000005" class="i-line" /><line x1="-10" y1="-14" x2="34" y2="11.403400000000001" class="i-line" /><line x1="-10" y1="-14" x2="34" y2="-39.403400000000005" class="i-line" /><line x1="-10" y1="-12" x2="34" y2="13.403400000000001" class="i-line" /><line x1="-10" y1="-12" x2="34" y2="-37.403400000000005" class="i-line" /><line x1="-10" y1="-10" x2="34" y2="15.403400000000001" class="i-line" /><line x1="-10" y1="-10" x2="34" y2="-35.403400000000005" class="i-line" /><line x1="-10" y1="-8" x2="34" y2="17.4034" class="i-line" /><line x1="-10" y1="-8" x2="34" y2="-33.403400000000005" class="i-line" /><line x1="-10" y1="-6" x2="34" y2="19.4034" class="i-line" /><line x1="-10" y1="-6" x2="34" y2="-31.4034" class="i-line" /><line x1="-10" y1="-4" x2="34" y2="21.4034" class="i-line" /><line x1="-10" y1="-4" x2="34" y2="-29.4034" class="i-line" /><line x1="-10" y1="-2" x2="34" y2="23.4034" class="i-line" /><line x1="-10" y1="-2" x2="34" y2="-27.4034" class="i-line" /><line x1="-10" y1="0" x2="34" y2="25.4034" class="i-line" /><line x1="-10" y1="0" x2="34" y2="-25.4034" class="i-line" /><line x1="-10" y1="2" x2="34" y2="27.4034" class="i-line" /><line x1="-10" y1="2" x2="34" y2="-23.4034" class="i-line" /><line x1="-10" y1="4" x2="34" y2="29.4034" class="i-line" /><line x1="-10" y1="4" x2="34" y2="-21.4034" class="i-line" /><line x1="-10" y1="6" x2="34" y2="31.4034" class="i-line" /><line x1="-10" y1="6" x2="34" y2="-19.4034" class="i-line" /><line x1="-10" y1="8" x2="34" y2="33.403400000000005" class="i-line" /><line x1="-10" y1="8" x2="34" y2="-17.4034" class="i-line" /><line x1="-10" y1="10" x2="34" y2="35.403400000000005" class="i-line" /><line x1="-10" y1="10" x2="34" y2="-15.403400000000001" class="i-line" /><line x1="-10" y1="12" x2="34" y2="37.403400000000005" class="i-line" /><line x1="-10" y1="12" x2="34" y2="-13.403400000000001" class="i-line" /><line x1="-10" y1="14" x2="34" y2="39.403400000000005" class="i-line" /><line x1="-10" y1="14" x2="34" y2="-11.403400000000001" class="i-line" /><line x1="-10" y1="16" x2="34" y2="41.403400000000005" class="i-line" /><line x1="-10" y1="16" x2="34" y2="-9.403400000000001" class="i-line" /><line x1="-10" y1="18" x2="34" y2="43.403400000000005" class="i-line" /><line x1="-10" y1="18" x2="34" y2="-7.403400000000001" class="i-line" /><line x1="-10" y1="20" x2="34" y2="45.403400000000005" class="i-line" /><line x1="-10" y1="20" x2="34" y2="-5.403400000000001" class="i-line" /><line x1="-10" y1="22" x2="34" y2="47.403400000000005" class="i-line" /><line x1="-10" y1="22" x2="34" y2="-3.4034000000000013" class="i-line" /><line x1="-10" y1="24" x2="34" y2="49.403400000000005" class="i-line" /><line x1="-10" y1="24" x2="34" y2="-1.4034000000000013" class="i-line" /><line x1="-10" y1="26" x2="34" y2="51.403400000000005" class="i-line" /><line x1="-10" y1="26" x2="34" y2="0.5965999999999987" class="i-line" /><line x1="-10" y1="28" x2="34" y2="53.403400000000005" class="i-line" /><line x1="-10" y1="28" x2="34" y2="2.5965999999999987" class="i-line" /><line x1="-10" y1="30" x2="34" y2="55.403400000000005" class="i-line" /><line x1="-10" y1="30" x2="34" y2="4.596599999999999" class="i-line" /><line x1="-10" y1="32" x2="34" y2="57.403400000000005" class="i-line" /><line x1="-10" y1="32" x2="34" y2="6.596599999999999" class="i-line" /><line x1="-10" y1="34" x2="34" y2="59.403400000000005" class="i-line" /><line x1="-10" y1="34" x2="34" y2="8.596599999999999" class="i-line" /><line x1="-10" y1="36" x2="34" y2="61.403400000000005" class="i-line" /><line x1="-10" y1="36" x2="34" y2="10.596599999999999" class="i-line" /><line x1="-10" y1="38" x2="34" y2="63.403400000000005" class="i-line" /><line x1="-10" y1="38" x2="34" y2="12.596599999999999" class="i-line" /><line x1="-10" y1="40" x2="34" y2="65.4034" class="i-line" /><line x1="-10" y1="40" x2="34" y2="14.596599999999999" class="i-line" /><line x1="-10" y1="42" x2="34" y2="67.4034" class="i-line" /><line x1="-10" y1="42" x2="34" y2="16.5966" class="i-line" /><line x1="-10" y1="44" x2="34" y2="69.4034" class="i-line" /><line x1="-10" y1="44" x2="34" y2="18.5966" class="i-line" /><line x1="-10" y1="46" x2="34" y2="71.4034" class="i-line" /><line x1="-10" y1="46" x2="34" y2="20.5966" class="i-line" /></svg>