<svg viewBox="0 0 100 24" fill="none" xmlns="http://www.w3.org/2000/svg">
  <!-- Symbol (X=0~24) -->
  <g transform="translate(0, 0)" stroke="#051d25" stroke-width="2" stroke-linecap="round" stroke-linejoin="round">
    <polyline points="15,6 12,3 3,12 6,15" />
    <polyline points="9,18 12,21 21,12 18,9" />
    <polygon points="12,9 15,12 12,15 9,12" fill="#1991B9" stroke="none" />
  </g>
  <!-- Clear Space Gap: X=24 to 28 (4px padding = 0.5x Unit) -->
  <!-- Wordmark (X=28~100) -->
  <g transform="translate(28, 2)" stroke="#051d25" stroke-width="2" stroke-linecap="round" stroke-linejoin="round">
    <path d="M 10 2 H 4 A 2 2 0 0 0 2 4 V 8 A 2 2 0 0 0 4 10 H 8 A 2 2 0 0 1 10 12 V 16 A 2 2 0 0 1 8 18 H 2" />
    <rect x="14" y="2" width="10" height="16" rx="5" />
    <polyline points="28,18 28,2 38,18 38,2" />
    <polyline points="42,18 47,2 52,18" />
    <line x1="44.5" y1="10" x2="49.5" y2="10" />
    <path d="M 64 6 A 4 4 0 0 0 60 2 H 58 A 4 4 0 0 0 54 6 V 14 A 4 4 0 0 0 58 18 H 60 A 4 4 0 0 0 64 14 V 10 H 60" />
    <line x1="68" y1="2" x2="68" y2="18" />
  </g>
</svg>
