<svg width="100" height="100" viewBox="0 0 100 100" fill="#1991B9" stroke="none" xmlns="http://www.w3.org/2000/svg">
  <!-- Sonagi Purifier | Source: SCAD | Mode: LOGO -->
  <g transform="scale(4.166666666666667) translate(0, 24)">
    <path d="
M 12.1047,-0.103256 L 12.2091,-0.111465 L 12.3129,-0.125137 L 12.4158,-0.144211 L 12.5176,-0.168655 L 12.618,-0.198395
 L 12.7167,-0.233353 L 12.8135,-0.273422 L 12.908,-0.318497 L 13,-0.368454 L 13.0893,-0.423172 L 13.1756,-0.482483
 L 13.2586,-0.546219 L 13.3383,-0.614227 L 13.4142,-0.686295 L 23.3137,-10.5858 L 23.3858,-10.6617 L 23.4538,-10.7414
 L 23.5175,-10.8244 L 23.5768,-10.9107 L 23.6315,-11 L 23.6815,-11.092 L 23.7266,-11.1865 L 23.7666,-11.2833
 L 23.8016,-11.382 L 23.8313,-11.4824 L 23.8558,-11.5842 L 23.8749,-11.6871 L 23.8885,-11.7909 L 23.8967,-11.8953
 L 23.8995,-12 L 23.8967,-12.1047 L 23.8885,-12.2091 L 23.8749,-12.3129 L 23.8558,-12.4158 L 23.8313,-12.5176
 L 23.8016,-12.618 L 23.7666,-12.7167 L 23.7266,-12.8135 L 23.6815,-12.908 L 23.6315,-13 L 23.5768,-13.0893
 L 23.5175,-13.1756 L 23.4538,-13.2586 L 23.3858,-13.3383 L 23.3137,-13.4142 L 13.4142,-23.3137 L 13.3383,-23.3858
 L 13.2586,-23.4538 L 13.1756,-23.5175 L 13.0893,-23.5768 L 13,-23.6315 L 12.908,-23.6815 L 12.8135,-23.7266
 L 12.7167,-23.7666 L 12.618,-23.8016 L 12.5176,-23.8313 L 12.4158,-23.8558 L 12.3129,-23.8749 L 12.2091,-23.8885
 L 12.1047,-23.8967 L 12,-23.8995 L 11.8953,-23.8967 L 11.7909,-23.8885 L 11.6871,-23.8749 L 11.5842,-23.8558
 L 11.4824,-23.8313 L 11.382,-23.8016 L 11.2833,-23.7666 L 11.1865,-23.7266 L 11.092,-23.6815 L 11,-23.6315
 L 10.9107,-23.5768 L 10.8244,-23.5175 L 10.7414,-23.4538 L 10.6617,-23.3858 L 10.5858,-23.3137 L 0.686295,-13.4142
 L 0.614227,-13.3383 L 0.546219,-13.2586 L 0.482483,-13.1756 L 0.423172,-13.0893 L 0.368454,-13 L 0.318497,-12.908
 L 0.273422,-12.8135 L 0.233353,-12.7167 L 0.198395,-12.618 L 0.168655,-12.5176 L 0.144211,-12.4158 L 0.125137,-12.3129
 L 0.111465,-12.2091 L 0.103256,-12.1047 L 0.10051,-12 L 0.103256,-11.8953 L 0.111465,-11.7909 L 0.125137,-11.6871
 L 0.144211,-11.5842 L 0.168655,-11.4824 L 0.198395,-11.382 L 0.233353,-11.2833 L 0.273422,-11.1865 L 0.318497,-11.092
 L 0.368454,-11 L 0.423172,-10.9107 L 0.482483,-10.8244 L 0.546219,-10.7414 L 0.614227,-10.6617 L 0.686295,-10.5858
 L 10.5858,-0.686295 L 10.6617,-0.614227 L 10.7414,-0.546219 L 10.8244,-0.482483 L 10.9107,-0.423172 L 11,-0.368454
 L 11.092,-0.318497 L 11.1865,-0.273422 L 11.2833,-0.233353 L 11.382,-0.198395 L 11.4824,-0.168655 L 11.5842,-0.144211
 L 11.6871,-0.125137 L 11.7909,-0.111465 L 11.8953,-0.103256 L 12,-0.10051 z
M 11.8168,-4.50479 L 11.6341,-4.51917 L 11.4525,-4.54308 L 11.2723,-4.57648 L 11.0941,-4.61925 L 10.9184,-4.6713
 L 10.7457,-4.73247 L 10.5764,-4.80258 L 10.411,-4.88147 L 10.25,-4.9689 L 10.0938,-5.06465 L 9.94275,-5.16843
 L 9.79738,-5.27998 L 9.65804,-5.39899 L 9.52512,-5.52512 L 9.39899,-5.65804 L 9.27998,-5.79738 L 9.16843,-5.94275
 L 9.06465,-6.09375 L 8.9689,-6.25 L 8.88147,-6.41103 L 8.80258,-6.57642 L 8.73247,-6.7457 L 8.6713,-6.91843
 L 8.61925,-7.09413 L 8.57648,-7.27231 L 8.54308,-7.45247 L 8.51917,-7.63414 L 8.50479,-7.81682 L 8.5,-8
 L 8.50479,-8.18317 L 8.51917,-8.36584 L 8.54308,-8.54752 L 8.57648,-8.72768 L 8.61925,-8.90585 L 8.6713,-9.08156
 L 8.73247,-9.25429 L 8.80258,-9.42357 L 11.8173,-16.0813 L 11.8218,-16.0908 L 11.8268,-16.1 L 11.8323,-16.1089
 L 11.8382,-16.1176 L 11.8446,-16.1259 L 11.8514,-16.1338 L 11.8586,-16.1414 L 11.8662,-16.1486 L 11.8741,-16.1554
 L 11.8824,-16.1618 L 11.8911,-16.1677 L 11.9,-16.1732 L 11.9092,-16.1782 L 11.9186,-16.1827 L 11.9283,-16.1867
 L 11.9382,-16.1902 L 11.9482,-16.1932 L 11.9584,-16.1956 L 11.9687,-16.1975 L 11.9791,-16.1989 L 11.9895,-16.1997
 L 12,-16.2 L 12.0105,-16.1997 L 12.0209,-16.1989 L 12.0313,-16.1975 L 12.0416,-16.1956 L 12.0518,-16.1932
 L 12.0618,-16.1902 L 12.0717,-16.1867 L 12.0813,-16.1827 L 12.0908,-16.1782 L 12.1,-16.1732 L 12.1089,-16.1677
 L 12.1176,-16.1618 L 12.1259,-16.1554 L 12.1338,-16.1486 L 12.1414,-16.1414 L 12.1486,-16.1338 L 12.1554,-16.1259
 L 12.1618,-16.1176 L 12.1677,-16.1089 L 12.1732,-16.1 L 12.1782,-16.0908 L 12.1827,-16.0813 L 15.1974,-9.42357
 L 15.2675,-9.25429 L 15.3287,-9.08156 L 15.3807,-8.90585 L 15.4235,-8.72768 L 15.4569,-8.54752 L 15.4808,-8.36584
 L 15.4952,-8.18317 L 15.5,-8 L 15.4952,-7.81682 L 15.4808,-7.63414 L 15.4569,-7.45247 L 15.4235,-7.27231
 L 15.3807,-7.09413 L 15.3287,-6.91843 L 15.2675,-6.7457 L 15.1974,-6.57642 L 15.1185,-6.41103 L 15.0311,-6.25
 L 14.9353,-6.09375 L 14.8316,-5.94275 L 14.72,-5.79738 L 14.601,-5.65804 L 14.4749,-5.52512 L 14.3419,-5.39899
 L 14.2026,-5.27998 L 14.0572,-5.16843 L 13.9062,-5.06465 L 13.75,-4.9689 L 13.589,-4.88147 L 13.4236,-4.80258
 L 13.2543,-4.73247 L 13.0816,-4.6713 L 12.9059,-4.61925 L 12.7277,-4.57648 L 12.5475,-4.54308 L 12.3658,-4.51917
 L 12.1832,-4.50479 L 12,-4.5 z
"/>
  </g>
</svg>